%TF.GenerationSoftware,KiCad,Pcbnew,(5.99.0-13050-gf79cb382c4)*%
%TF.CreationDate,2021-11-18T10:13:38-08:00*%
%TF.ProjectId,S_Alarm,535f416c-6172-46d2-9e6b-696361645f70,rev?*%
%TF.SameCoordinates,Original*%
%TF.FileFunction,Soldermask,Bot*%
%TF.FilePolarity,Negative*%
%FSLAX46Y46*%
G04 Gerber Fmt 4.6, Leading zero omitted, Abs format (unit mm)*
G04 Created by KiCad (PCBNEW (5.99.0-13050-gf79cb382c4)) date 2021-11-18 10:13:38*
%MOMM*%
%LPD*%
G01*
G04 APERTURE LIST*
G04 Aperture macros list*
%AMRoundRect*
0 Rectangle with rounded corners*
0 $1 Rounding radius*
0 $2 $3 $4 $5 $6 $7 $8 $9 X,Y pos of 4 corners*
0 Add a 4 corners polygon primitive as box body*
4,1,4,$2,$3,$4,$5,$6,$7,$8,$9,$2,$3,0*
0 Add four circle primitives for the rounded corners*
1,1,$1+$1,$2,$3*
1,1,$1+$1,$4,$5*
1,1,$1+$1,$6,$7*
1,1,$1+$1,$8,$9*
0 Add four rect primitives between the rounded corners*
20,1,$1+$1,$2,$3,$4,$5,0*
20,1,$1+$1,$4,$5,$6,$7,0*
20,1,$1+$1,$6,$7,$8,$9,0*
20,1,$1+$1,$8,$9,$2,$3,0*%
G04 Aperture macros list end*
%ADD10RoundRect,0.050800X0.800000X-0.800000X0.800000X0.800000X-0.800000X0.800000X-0.800000X-0.800000X0*%
%ADD11O,1.701600X1.701600*%
%ADD12RoundRect,0.050800X-0.762000X-0.762000X0.762000X-0.762000X0.762000X0.762000X-0.762000X0.762000X0*%
%ADD13C,1.625600*%
%ADD14RoundRect,0.300800X-0.650000X0.412500X-0.650000X-0.412500X0.650000X-0.412500X0.650000X0.412500X0*%
%ADD15RoundRect,0.300800X-0.412500X-0.650000X0.412500X-0.650000X0.412500X0.650000X-0.412500X0.650000X0*%
%ADD16RoundRect,0.050800X-1.300000X-2.780000X1.300000X-2.780000X1.300000X2.780000X-1.300000X2.780000X0*%
%ADD17C,17.901600*%
%ADD18RoundRect,0.050800X0.250000X0.400000X-0.250000X0.400000X-0.250000X-0.400000X0.250000X-0.400000X0*%
G04 APERTURE END LIST*
D10*
%TO.C,A1*%
X126111000Y-50800000D03*
D11*
X123571000Y-50800000D03*
X121031000Y-50800000D03*
X118491000Y-50800000D03*
X115951000Y-50800000D03*
X113411000Y-50800000D03*
X110871000Y-50800000D03*
X108331000Y-50800000D03*
X103251000Y-50800000D03*
X100711000Y-50800000D03*
X98171000Y-50800000D03*
X95631000Y-50800000D03*
X93091000Y-50800000D03*
X90551000Y-50800000D03*
X90551000Y-99060000D03*
X93091000Y-99060000D03*
X95631000Y-99060000D03*
X98171000Y-99060000D03*
X100711000Y-99060000D03*
X103251000Y-99060000D03*
X105791000Y-99060000D03*
X108331000Y-99060000D03*
X112391000Y-99060000D03*
X114931000Y-99060000D03*
X117471000Y-99060000D03*
X120011000Y-99060000D03*
X122551000Y-99060000D03*
X125091000Y-99060000D03*
X127631000Y-99060000D03*
X130171000Y-99060000D03*
X132711000Y-99060000D03*
X135251000Y-99060000D03*
%TD*%
D12*
%TO.C,DS2*%
X96266000Y-57715000D03*
D13*
X98806000Y-57715000D03*
X101346000Y-57715000D03*
X103886000Y-57715000D03*
%TD*%
%TO.C,U1*%
X110395000Y-53086000D03*
X112935000Y-53086000D03*
X115475000Y-53086000D03*
X118015000Y-53086000D03*
X120555000Y-53086000D03*
%TD*%
D12*
%TO.C,BZ1*%
X92377000Y-89027000D03*
D13*
X98627000Y-89027000D03*
%TD*%
D14*
%TO.C,C2*%
X96774000Y-83400500D03*
X96774000Y-86525500D03*
%TD*%
D15*
%TO.C,C3*%
X100037500Y-86360000D03*
X103162500Y-86360000D03*
%TD*%
D16*
%TO.C,BT1*%
X111981000Y-72136000D03*
X88171000Y-72136000D03*
D17*
X100076000Y-72136000D03*
%TD*%
D18*
%TO.C,Y1*%
X103200000Y-93810000D03*
X102400000Y-93810000D03*
X101600000Y-93810000D03*
X100800000Y-93810000D03*
X100000000Y-93810000D03*
X100000000Y-91610000D03*
X100800000Y-91610000D03*
X101600000Y-91610000D03*
X102400000Y-91610000D03*
X103200000Y-91610000D03*
%TD*%
M02*
