%TF.GenerationSoftware,KiCad,Pcbnew,(5.99.0-13050-gf79cb382c4)*%
%TF.CreationDate,2021-11-18T10:13:38-08:00*%
%TF.ProjectId,S_Alarm,535f416c-6172-46d2-9e6b-696361645f70,rev?*%
%TF.SameCoordinates,Original*%
%TF.FileFunction,Legend,Top*%
%TF.FilePolarity,Positive*%
%FSLAX46Y46*%
G04 Gerber Fmt 4.6, Leading zero omitted, Abs format (unit mm)*
G04 Created by KiCad (PCBNEW (5.99.0-13050-gf79cb382c4)) date 2021-11-18 10:13:38*
%MOMM*%
%LPD*%
G01*
G04 APERTURE LIST*
%ADD10C,0.150000*%
%ADD11C,0.254000*%
%ADD12C,0.120000*%
%ADD13C,0.100000*%
%ADD14C,0.200000*%
G04 APERTURE END LIST*
D10*
%TO.C,DS2*%
X143565619Y-62666714D02*
X144565619Y-62666714D01*
X144565619Y-62904809D01*
X144518000Y-63047666D01*
X144422761Y-63142904D01*
X144327523Y-63190523D01*
X144137047Y-63238142D01*
X143994190Y-63238142D01*
X143803714Y-63190523D01*
X143708476Y-63142904D01*
X143613238Y-63047666D01*
X143565619Y-62904809D01*
X143565619Y-62666714D01*
X143613238Y-63619095D02*
X143565619Y-63761952D01*
X143565619Y-64000047D01*
X143613238Y-64095285D01*
X143660857Y-64142904D01*
X143756095Y-64190523D01*
X143851333Y-64190523D01*
X143946571Y-64142904D01*
X143994190Y-64095285D01*
X144041809Y-64000047D01*
X144089428Y-63809571D01*
X144137047Y-63714333D01*
X144184666Y-63666714D01*
X144279904Y-63619095D01*
X144375142Y-63619095D01*
X144470380Y-63666714D01*
X144518000Y-63714333D01*
X144565619Y-63809571D01*
X144565619Y-64047666D01*
X144518000Y-64190523D01*
X144470380Y-64571476D02*
X144518000Y-64619095D01*
X144565619Y-64714333D01*
X144565619Y-64952428D01*
X144518000Y-65047666D01*
X144470380Y-65095285D01*
X144375142Y-65142904D01*
X144279904Y-65142904D01*
X144137047Y-65095285D01*
X143565619Y-64523857D01*
X143565619Y-65142904D01*
%TO.C,D3*%
X153941919Y-50301904D02*
X153234813Y-51009011D01*
X153066454Y-50840652D01*
X152999110Y-50705965D01*
X152999110Y-50571278D01*
X153032782Y-50470263D01*
X153133797Y-50301904D01*
X153234813Y-50200889D01*
X153403171Y-50099873D01*
X153504187Y-50066202D01*
X153638874Y-50066202D01*
X153773561Y-50133545D01*
X153941919Y-50301904D01*
X152595049Y-50369248D02*
X152157316Y-49931515D01*
X152662393Y-49897843D01*
X152561377Y-49796828D01*
X152527706Y-49695812D01*
X152527706Y-49628469D01*
X152561377Y-49527454D01*
X152729736Y-49359095D01*
X152830751Y-49325423D01*
X152898095Y-49325423D01*
X152999110Y-49359095D01*
X153201141Y-49561125D01*
X153234813Y-49662141D01*
X153234813Y-49729484D01*
%TO.C,D12*%
X139094380Y-93797285D02*
X138094380Y-93797285D01*
X138094380Y-93559190D01*
X138142000Y-93416333D01*
X138237238Y-93321095D01*
X138332476Y-93273476D01*
X138522952Y-93225857D01*
X138665809Y-93225857D01*
X138856285Y-93273476D01*
X138951523Y-93321095D01*
X139046761Y-93416333D01*
X139094380Y-93559190D01*
X139094380Y-93797285D01*
X139094380Y-92273476D02*
X139094380Y-92844904D01*
X139094380Y-92559190D02*
X138094380Y-92559190D01*
X138237238Y-92654428D01*
X138332476Y-92749666D01*
X138380095Y-92844904D01*
X138189619Y-91892523D02*
X138142000Y-91844904D01*
X138094380Y-91749666D01*
X138094380Y-91511571D01*
X138142000Y-91416333D01*
X138189619Y-91368714D01*
X138284857Y-91321095D01*
X138380095Y-91321095D01*
X138522952Y-91368714D01*
X139094380Y-91940142D01*
X139094380Y-91321095D01*
%TO.C,D9*%
X105675382Y-39801021D02*
X105366365Y-38849965D01*
X105592807Y-38776389D01*
X105743387Y-38777532D01*
X105863394Y-38838679D01*
X105938113Y-38914541D01*
X106042261Y-39080979D01*
X106086407Y-39216845D01*
X106099979Y-39412713D01*
X106084120Y-39518005D01*
X106022974Y-39638012D01*
X105901824Y-39727446D01*
X105675382Y-39801021D01*
X106671727Y-39477289D02*
X106852880Y-39418429D01*
X106928742Y-39343710D01*
X106959315Y-39283707D01*
X107005747Y-39118411D01*
X106992175Y-38922543D01*
X106874454Y-38560235D01*
X106799735Y-38484374D01*
X106739732Y-38453800D01*
X106634440Y-38437942D01*
X106453286Y-38496803D01*
X106377425Y-38571521D01*
X106346851Y-38631525D01*
X106330993Y-38736817D01*
X106404569Y-38963259D01*
X106479287Y-39039120D01*
X106539291Y-39069694D01*
X106644583Y-39085552D01*
X106825736Y-39026691D01*
X106901598Y-38951973D01*
X106932171Y-38891969D01*
X106948029Y-38786677D01*
%TO.C,C1*%
X86066333Y-54785142D02*
X86018714Y-54832761D01*
X85875857Y-54880380D01*
X85780619Y-54880380D01*
X85637761Y-54832761D01*
X85542523Y-54737523D01*
X85494904Y-54642285D01*
X85447285Y-54451809D01*
X85447285Y-54308952D01*
X85494904Y-54118476D01*
X85542523Y-54023238D01*
X85637761Y-53928000D01*
X85780619Y-53880380D01*
X85875857Y-53880380D01*
X86018714Y-53928000D01*
X86066333Y-53975619D01*
X87018714Y-54880380D02*
X86447285Y-54880380D01*
X86733000Y-54880380D02*
X86733000Y-53880380D01*
X86637761Y-54023238D01*
X86542523Y-54118476D01*
X86447285Y-54166095D01*
%TO.C,R1*%
X133437333Y-48500380D02*
X133104000Y-48024190D01*
X132865904Y-48500380D02*
X132865904Y-47500380D01*
X133246857Y-47500380D01*
X133342095Y-47548000D01*
X133389714Y-47595619D01*
X133437333Y-47690857D01*
X133437333Y-47833714D01*
X133389714Y-47928952D01*
X133342095Y-47976571D01*
X133246857Y-48024190D01*
X132865904Y-48024190D01*
X134389714Y-48500380D02*
X133818285Y-48500380D01*
X134104000Y-48500380D02*
X134104000Y-47500380D01*
X134008761Y-47643238D01*
X133913523Y-47738476D01*
X133818285Y-47786095D01*
%TO.C,R7*%
X144174380Y-84875666D02*
X143698190Y-85209000D01*
X144174380Y-85447095D02*
X143174380Y-85447095D01*
X143174380Y-85066142D01*
X143222000Y-84970904D01*
X143269619Y-84923285D01*
X143364857Y-84875666D01*
X143507714Y-84875666D01*
X143602952Y-84923285D01*
X143650571Y-84970904D01*
X143698190Y-85066142D01*
X143698190Y-85447095D01*
X143174380Y-84542333D02*
X143174380Y-83875666D01*
X144174380Y-84304238D01*
D11*
%TO.C,SW2*%
X148162665Y-61347048D02*
X148344094Y-61407524D01*
X148646475Y-61407524D01*
X148767427Y-61347048D01*
X148827903Y-61286572D01*
X148888379Y-61165620D01*
X148888379Y-61044667D01*
X148827903Y-60923715D01*
X148767427Y-60863239D01*
X148646475Y-60802762D01*
X148404570Y-60742286D01*
X148283618Y-60681810D01*
X148223141Y-60621334D01*
X148162665Y-60500381D01*
X148162665Y-60379429D01*
X148223141Y-60258477D01*
X148283618Y-60198001D01*
X148404570Y-60137524D01*
X148706951Y-60137524D01*
X148888379Y-60198001D01*
X149311713Y-60137524D02*
X149614094Y-61407524D01*
X149855999Y-60500381D01*
X150097903Y-61407524D01*
X150400284Y-60137524D01*
X150823618Y-60258477D02*
X150884094Y-60198001D01*
X151005046Y-60137524D01*
X151307427Y-60137524D01*
X151428379Y-60198001D01*
X151488856Y-60258477D01*
X151549332Y-60379429D01*
X151549332Y-60500381D01*
X151488856Y-60681810D01*
X150763141Y-61407524D01*
X151549332Y-61407524D01*
D10*
%TO.C,R6*%
X117123380Y-85256666D02*
X116647190Y-85590000D01*
X117123380Y-85828095D02*
X116123380Y-85828095D01*
X116123380Y-85447142D01*
X116171000Y-85351904D01*
X116218619Y-85304285D01*
X116313857Y-85256666D01*
X116456714Y-85256666D01*
X116551952Y-85304285D01*
X116599571Y-85351904D01*
X116647190Y-85447142D01*
X116647190Y-85828095D01*
X116123380Y-84399523D02*
X116123380Y-84590000D01*
X116171000Y-84685238D01*
X116218619Y-84732857D01*
X116361476Y-84828095D01*
X116551952Y-84875714D01*
X116932904Y-84875714D01*
X117028142Y-84828095D01*
X117075761Y-84780476D01*
X117123380Y-84685238D01*
X117123380Y-84494761D01*
X117075761Y-84399523D01*
X117028142Y-84351904D01*
X116932904Y-84304285D01*
X116694809Y-84304285D01*
X116599571Y-84351904D01*
X116551952Y-84399523D01*
X116504333Y-84494761D01*
X116504333Y-84685238D01*
X116551952Y-84780476D01*
X116599571Y-84828095D01*
X116694809Y-84875714D01*
%TO.C,R11*%
X111958380Y-85478857D02*
X111482190Y-85812190D01*
X111958380Y-86050285D02*
X110958380Y-86050285D01*
X110958380Y-85669333D01*
X111006000Y-85574095D01*
X111053619Y-85526476D01*
X111148857Y-85478857D01*
X111291714Y-85478857D01*
X111386952Y-85526476D01*
X111434571Y-85574095D01*
X111482190Y-85669333D01*
X111482190Y-86050285D01*
X111958380Y-84526476D02*
X111958380Y-85097904D01*
X111958380Y-84812190D02*
X110958380Y-84812190D01*
X111101238Y-84907428D01*
X111196476Y-85002666D01*
X111244095Y-85097904D01*
X111958380Y-83574095D02*
X111958380Y-84145523D01*
X111958380Y-83859809D02*
X110958380Y-83859809D01*
X111101238Y-83955047D01*
X111196476Y-84050285D01*
X111244095Y-84145523D01*
%TO.C,R12*%
X142734380Y-85351857D02*
X142258190Y-85685190D01*
X142734380Y-85923285D02*
X141734380Y-85923285D01*
X141734380Y-85542333D01*
X141782000Y-85447095D01*
X141829619Y-85399476D01*
X141924857Y-85351857D01*
X142067714Y-85351857D01*
X142162952Y-85399476D01*
X142210571Y-85447095D01*
X142258190Y-85542333D01*
X142258190Y-85923285D01*
X142734380Y-84399476D02*
X142734380Y-84970904D01*
X142734380Y-84685190D02*
X141734380Y-84685190D01*
X141877238Y-84780428D01*
X141972476Y-84875666D01*
X142020095Y-84970904D01*
X141829619Y-84018523D02*
X141782000Y-83970904D01*
X141734380Y-83875666D01*
X141734380Y-83637571D01*
X141782000Y-83542333D01*
X141829619Y-83494714D01*
X141924857Y-83447095D01*
X142020095Y-83447095D01*
X142162952Y-83494714D01*
X142734380Y-84066142D01*
X142734380Y-83447095D01*
%TO.C,R10*%
X122554820Y-88119845D02*
X122005250Y-87930528D01*
X122092525Y-88455723D02*
X121504739Y-87646706D01*
X121812936Y-87422787D01*
X121917975Y-87405332D01*
X121984490Y-87415867D01*
X122078994Y-87464927D01*
X122162963Y-87580501D01*
X122180418Y-87685540D01*
X122169883Y-87752054D01*
X122120824Y-87846558D01*
X121812627Y-88070476D01*
X123325312Y-87560050D02*
X122863017Y-87895927D01*
X123094165Y-87727988D02*
X122506379Y-86918971D01*
X122513299Y-87090525D01*
X122492230Y-87223554D01*
X122443170Y-87318058D01*
X123238347Y-86387166D02*
X123315396Y-86331186D01*
X123420435Y-86313731D01*
X123486950Y-86324266D01*
X123581454Y-86373326D01*
X123731938Y-86499434D01*
X123871887Y-86692057D01*
X123945321Y-86874146D01*
X123962776Y-86979185D01*
X123952241Y-87045699D01*
X123903182Y-87140203D01*
X123826132Y-87196183D01*
X123721093Y-87213638D01*
X123654579Y-87203103D01*
X123560075Y-87154043D01*
X123409591Y-87027935D01*
X123269642Y-86835312D01*
X123196208Y-86653223D01*
X123178753Y-86548184D01*
X123189288Y-86481670D01*
X123238347Y-86387166D01*
%TO.C,Q4*%
X107981761Y-86399619D02*
X107886523Y-86352000D01*
X107791285Y-86256761D01*
X107648428Y-86113904D01*
X107553190Y-86066285D01*
X107457952Y-86066285D01*
X107505571Y-86304380D02*
X107410333Y-86256761D01*
X107315095Y-86161523D01*
X107267476Y-85971047D01*
X107267476Y-85637714D01*
X107315095Y-85447238D01*
X107410333Y-85352000D01*
X107505571Y-85304380D01*
X107696047Y-85304380D01*
X107791285Y-85352000D01*
X107886523Y-85447238D01*
X107934142Y-85637714D01*
X107934142Y-85971047D01*
X107886523Y-86161523D01*
X107791285Y-86256761D01*
X107696047Y-86304380D01*
X107505571Y-86304380D01*
X108791285Y-85637714D02*
X108791285Y-86304380D01*
X108553190Y-85256761D02*
X108315095Y-85971047D01*
X108934142Y-85971047D01*
%TO.C,D13*%
X122737714Y-38623380D02*
X122737714Y-37623380D01*
X122975809Y-37623380D01*
X123118666Y-37671000D01*
X123213904Y-37766238D01*
X123261523Y-37861476D01*
X123309142Y-38051952D01*
X123309142Y-38194809D01*
X123261523Y-38385285D01*
X123213904Y-38480523D01*
X123118666Y-38575761D01*
X122975809Y-38623380D01*
X122737714Y-38623380D01*
X124261523Y-38623380D02*
X123690095Y-38623380D01*
X123975809Y-38623380D02*
X123975809Y-37623380D01*
X123880571Y-37766238D01*
X123785333Y-37861476D01*
X123690095Y-37909095D01*
X124594857Y-37623380D02*
X125213904Y-37623380D01*
X124880571Y-38004333D01*
X125023428Y-38004333D01*
X125118666Y-38051952D01*
X125166285Y-38099571D01*
X125213904Y-38194809D01*
X125213904Y-38432904D01*
X125166285Y-38528142D01*
X125118666Y-38575761D01*
X125023428Y-38623380D01*
X124737714Y-38623380D01*
X124642476Y-38575761D01*
X124594857Y-38528142D01*
%TO.C,R13*%
X106158380Y-93860857D02*
X105682190Y-94194190D01*
X106158380Y-94432285D02*
X105158380Y-94432285D01*
X105158380Y-94051333D01*
X105206000Y-93956095D01*
X105253619Y-93908476D01*
X105348857Y-93860857D01*
X105491714Y-93860857D01*
X105586952Y-93908476D01*
X105634571Y-93956095D01*
X105682190Y-94051333D01*
X105682190Y-94432285D01*
X106158380Y-92908476D02*
X106158380Y-93479904D01*
X106158380Y-93194190D02*
X105158380Y-93194190D01*
X105301238Y-93289428D01*
X105396476Y-93384666D01*
X105444095Y-93479904D01*
X105158380Y-92575142D02*
X105158380Y-91956095D01*
X105539333Y-92289428D01*
X105539333Y-92146571D01*
X105586952Y-92051333D01*
X105634571Y-92003714D01*
X105729809Y-91956095D01*
X105967904Y-91956095D01*
X106063142Y-92003714D01*
X106110761Y-92051333D01*
X106158380Y-92146571D01*
X106158380Y-92432285D01*
X106110761Y-92527523D01*
X106063142Y-92575142D01*
%TO.C,Q2*%
X120173761Y-91773619D02*
X120078523Y-91726000D01*
X119983285Y-91630761D01*
X119840428Y-91487904D01*
X119745190Y-91440285D01*
X119649952Y-91440285D01*
X119697571Y-91678380D02*
X119602333Y-91630761D01*
X119507095Y-91535523D01*
X119459476Y-91345047D01*
X119459476Y-91011714D01*
X119507095Y-90821238D01*
X119602333Y-90726000D01*
X119697571Y-90678380D01*
X119888047Y-90678380D01*
X119983285Y-90726000D01*
X120078523Y-90821238D01*
X120126142Y-91011714D01*
X120126142Y-91345047D01*
X120078523Y-91535523D01*
X119983285Y-91630761D01*
X119888047Y-91678380D01*
X119697571Y-91678380D01*
X120507095Y-90773619D02*
X120554714Y-90726000D01*
X120649952Y-90678380D01*
X120888047Y-90678380D01*
X120983285Y-90726000D01*
X121030904Y-90773619D01*
X121078523Y-90868857D01*
X121078523Y-90964095D01*
X121030904Y-91106952D01*
X120459476Y-91678380D01*
X121078523Y-91678380D01*
%TO.C,D4*%
X90372019Y-45795384D02*
X89784234Y-44986367D01*
X89976857Y-44846418D01*
X90120420Y-44800973D01*
X90253449Y-44822043D01*
X90347953Y-44871102D01*
X90498437Y-44997211D01*
X90582406Y-45112785D01*
X90655841Y-45294873D01*
X90673296Y-45399912D01*
X90652226Y-45532941D01*
X90564642Y-45655435D01*
X90372019Y-45795384D01*
X91135900Y-44416346D02*
X91527757Y-44955691D01*
X90719359Y-44248098D02*
X90946583Y-44965916D01*
X91447403Y-44602049D01*
%TO.C,D1*%
X83806843Y-51195667D02*
X83099736Y-50488561D01*
X83268095Y-50320202D01*
X83402782Y-50252858D01*
X83537469Y-50252858D01*
X83638484Y-50286530D01*
X83806843Y-50387545D01*
X83907858Y-50488561D01*
X84008874Y-50656919D01*
X84042545Y-50757935D01*
X84042545Y-50892622D01*
X83975202Y-51027309D01*
X83806843Y-51195667D01*
X84884339Y-50118171D02*
X84480278Y-50522232D01*
X84682309Y-50320202D02*
X83975202Y-49613095D01*
X84008874Y-49781454D01*
X84008874Y-49916141D01*
X83975202Y-50017156D01*
%TO.C,R3*%
X147022333Y-72757383D02*
X146689000Y-72281193D01*
X146450904Y-72757383D02*
X146450904Y-71757383D01*
X146831857Y-71757383D01*
X146927095Y-71805003D01*
X146974714Y-71852622D01*
X147022333Y-71947860D01*
X147022333Y-72090717D01*
X146974714Y-72185955D01*
X146927095Y-72233574D01*
X146831857Y-72281193D01*
X146450904Y-72281193D01*
X147355666Y-71757383D02*
X147974714Y-71757383D01*
X147641380Y-72138336D01*
X147784238Y-72138336D01*
X147879476Y-72185955D01*
X147927095Y-72233574D01*
X147974714Y-72328812D01*
X147974714Y-72566907D01*
X147927095Y-72662145D01*
X147879476Y-72709764D01*
X147784238Y-72757383D01*
X147498523Y-72757383D01*
X147403285Y-72709764D01*
X147355666Y-72662145D01*
%TO.C,D11*%
X113085714Y-38623380D02*
X113085714Y-37623380D01*
X113323809Y-37623380D01*
X113466666Y-37671000D01*
X113561904Y-37766238D01*
X113609523Y-37861476D01*
X113657142Y-38051952D01*
X113657142Y-38194809D01*
X113609523Y-38385285D01*
X113561904Y-38480523D01*
X113466666Y-38575761D01*
X113323809Y-38623380D01*
X113085714Y-38623380D01*
X114609523Y-38623380D02*
X114038095Y-38623380D01*
X114323809Y-38623380D02*
X114323809Y-37623380D01*
X114228571Y-37766238D01*
X114133333Y-37861476D01*
X114038095Y-37909095D01*
X115561904Y-38623380D02*
X114990476Y-38623380D01*
X115276190Y-38623380D02*
X115276190Y-37623380D01*
X115180952Y-37766238D01*
X115085714Y-37861476D01*
X114990476Y-37909095D01*
%TO.C,R9*%
X152102333Y-65180382D02*
X151769000Y-64704192D01*
X151530904Y-65180382D02*
X151530904Y-64180382D01*
X151911857Y-64180382D01*
X152007095Y-64228002D01*
X152054714Y-64275621D01*
X152102333Y-64370859D01*
X152102333Y-64513716D01*
X152054714Y-64608954D01*
X152007095Y-64656573D01*
X151911857Y-64704192D01*
X151530904Y-64704192D01*
X152578523Y-65180382D02*
X152769000Y-65180382D01*
X152864238Y-65132763D01*
X152911857Y-65085144D01*
X153007095Y-64942287D01*
X153054714Y-64751811D01*
X153054714Y-64370859D01*
X153007095Y-64275621D01*
X152959476Y-64228002D01*
X152864238Y-64180382D01*
X152673761Y-64180382D01*
X152578523Y-64228002D01*
X152530904Y-64275621D01*
X152483285Y-64370859D01*
X152483285Y-64608954D01*
X152530904Y-64704192D01*
X152578523Y-64751811D01*
X152673761Y-64799430D01*
X152864238Y-64799430D01*
X152959476Y-64751811D01*
X153007095Y-64704192D01*
X153054714Y-64608954D01*
%TO.C,D6*%
X97910695Y-42083685D02*
X97456705Y-41192679D01*
X97668849Y-41084586D01*
X97817755Y-41062159D01*
X97945850Y-41103779D01*
X98031516Y-41167018D01*
X98160419Y-41315115D01*
X98225275Y-41442402D01*
X98269320Y-41633736D01*
X98270129Y-41740213D01*
X98228508Y-41868307D01*
X98122840Y-41975592D01*
X97910695Y-42083685D01*
X98729571Y-40544121D02*
X98559856Y-40630595D01*
X98496617Y-40716261D01*
X98475806Y-40780309D01*
X98455804Y-40950832D01*
X98499850Y-41142167D01*
X98672799Y-41481598D01*
X98758465Y-41544837D01*
X98822512Y-41565647D01*
X98928989Y-41564839D01*
X99098704Y-41478364D01*
X99161943Y-41392698D01*
X99182754Y-41328651D01*
X99181945Y-41222175D01*
X99073852Y-41010030D01*
X98988186Y-40946791D01*
X98924139Y-40925981D01*
X98817662Y-40926789D01*
X98647947Y-41013263D01*
X98584708Y-41098929D01*
X98563897Y-41162977D01*
X98564706Y-41269453D01*
%TO.C,R5*%
X128045380Y-85256666D02*
X127569190Y-85590000D01*
X128045380Y-85828095D02*
X127045380Y-85828095D01*
X127045380Y-85447142D01*
X127093000Y-85351904D01*
X127140619Y-85304285D01*
X127235857Y-85256666D01*
X127378714Y-85256666D01*
X127473952Y-85304285D01*
X127521571Y-85351904D01*
X127569190Y-85447142D01*
X127569190Y-85828095D01*
X127045380Y-84351904D02*
X127045380Y-84828095D01*
X127521571Y-84875714D01*
X127473952Y-84828095D01*
X127426333Y-84732857D01*
X127426333Y-84494761D01*
X127473952Y-84399523D01*
X127521571Y-84351904D01*
X127616809Y-84304285D01*
X127854904Y-84304285D01*
X127950142Y-84351904D01*
X127997761Y-84399523D01*
X128045380Y-84494761D01*
X128045380Y-84732857D01*
X127997761Y-84828095D01*
X127950142Y-84875714D01*
%TO.C,D10*%
X132674088Y-39341693D02*
X132365071Y-40292749D01*
X132138629Y-40219174D01*
X132017479Y-40129740D01*
X131956332Y-40009733D01*
X131940474Y-39904441D01*
X131954046Y-39708572D01*
X131998192Y-39572707D01*
X132102340Y-39406269D01*
X132177059Y-39330407D01*
X132297066Y-39269260D01*
X132447646Y-39268117D01*
X132674088Y-39341693D01*
X131224859Y-38870810D02*
X131768320Y-39047391D01*
X131496590Y-38959100D02*
X131187573Y-39910157D01*
X131322295Y-39803722D01*
X131442302Y-39742575D01*
X131547594Y-39726717D01*
X130327093Y-39630570D02*
X130236516Y-39601140D01*
X130160654Y-39526421D01*
X130130081Y-39466418D01*
X130114223Y-39361126D01*
X130127795Y-39165257D01*
X130201370Y-38938815D01*
X130305519Y-38772376D01*
X130380238Y-38696515D01*
X130440241Y-38665941D01*
X130545533Y-38650083D01*
X130636110Y-38679513D01*
X130711972Y-38754232D01*
X130742545Y-38814235D01*
X130758403Y-38919527D01*
X130744831Y-39115396D01*
X130671256Y-39341838D01*
X130567107Y-39508277D01*
X130492388Y-39584138D01*
X130432385Y-39614712D01*
X130327093Y-39630570D01*
%TO.C,D5*%
X147395786Y-45317416D02*
X146808001Y-46126433D01*
X146615378Y-45986484D01*
X146527794Y-45863990D01*
X146506724Y-45730962D01*
X146524179Y-45625923D01*
X146597613Y-45443834D01*
X146681583Y-45328260D01*
X146832066Y-45202152D01*
X146926570Y-45153092D01*
X147059599Y-45132023D01*
X147203163Y-45177467D01*
X147395786Y-45317416D01*
X145613738Y-45258750D02*
X145998984Y-45538648D01*
X146317406Y-45181391D01*
X146250892Y-45191926D01*
X146145853Y-45174471D01*
X145953230Y-45034522D01*
X145904170Y-44940018D01*
X145893635Y-44873504D01*
X145911090Y-44768465D01*
X146051039Y-44575842D01*
X146145543Y-44526782D01*
X146212058Y-44516248D01*
X146317097Y-44533702D01*
X146509720Y-44673651D01*
X146558779Y-44768155D01*
X146569314Y-44834670D01*
%TO.C,R8*%
X149820333Y-69032380D02*
X149487000Y-68556190D01*
X149248904Y-69032380D02*
X149248904Y-68032380D01*
X149629857Y-68032380D01*
X149725095Y-68080000D01*
X149772714Y-68127619D01*
X149820333Y-68222857D01*
X149820333Y-68365714D01*
X149772714Y-68460952D01*
X149725095Y-68508571D01*
X149629857Y-68556190D01*
X149248904Y-68556190D01*
X150391761Y-68460952D02*
X150296523Y-68413333D01*
X150248904Y-68365714D01*
X150201285Y-68270476D01*
X150201285Y-68222857D01*
X150248904Y-68127619D01*
X150296523Y-68080000D01*
X150391761Y-68032380D01*
X150582238Y-68032380D01*
X150677476Y-68080000D01*
X150725095Y-68127619D01*
X150772714Y-68222857D01*
X150772714Y-68270476D01*
X150725095Y-68365714D01*
X150677476Y-68413333D01*
X150582238Y-68460952D01*
X150391761Y-68460952D01*
X150296523Y-68508571D01*
X150248904Y-68556190D01*
X150201285Y-68651428D01*
X150201285Y-68841904D01*
X150248904Y-68937142D01*
X150296523Y-68984761D01*
X150391761Y-69032380D01*
X150582238Y-69032380D01*
X150677476Y-68984761D01*
X150725095Y-68937142D01*
X150772714Y-68841904D01*
X150772714Y-68651428D01*
X150725095Y-68556190D01*
X150677476Y-68508571D01*
X150582238Y-68460952D01*
%TO.C,D2*%
X124235380Y-93829095D02*
X123235380Y-93829095D01*
X123235380Y-93591000D01*
X123283000Y-93448142D01*
X123378238Y-93352904D01*
X123473476Y-93305285D01*
X123663952Y-93257666D01*
X123806809Y-93257666D01*
X123997285Y-93305285D01*
X124092523Y-93352904D01*
X124187761Y-93448142D01*
X124235380Y-93591000D01*
X124235380Y-93829095D01*
X123330619Y-92876714D02*
X123283000Y-92829095D01*
X123235380Y-92733857D01*
X123235380Y-92495761D01*
X123283000Y-92400523D01*
X123330619Y-92352904D01*
X123425857Y-92305285D01*
X123521095Y-92305285D01*
X123663952Y-92352904D01*
X124235380Y-92924333D01*
X124235380Y-92305285D01*
%TO.C,R4*%
X146965335Y-68889383D02*
X146632002Y-68413193D01*
X146393906Y-68889383D02*
X146393906Y-67889383D01*
X146774859Y-67889383D01*
X146870097Y-67937003D01*
X146917716Y-67984622D01*
X146965335Y-68079860D01*
X146965335Y-68222717D01*
X146917716Y-68317955D01*
X146870097Y-68365574D01*
X146774859Y-68413193D01*
X146393906Y-68413193D01*
X147822478Y-68222717D02*
X147822478Y-68889383D01*
X147584382Y-67841764D02*
X147346287Y-68556050D01*
X147965335Y-68556050D01*
%TO.C,R2*%
X133437333Y-53199380D02*
X133104000Y-52723190D01*
X132865904Y-53199380D02*
X132865904Y-52199380D01*
X133246857Y-52199380D01*
X133342095Y-52247000D01*
X133389714Y-52294619D01*
X133437333Y-52389857D01*
X133437333Y-52532714D01*
X133389714Y-52627952D01*
X133342095Y-52675571D01*
X133246857Y-52723190D01*
X132865904Y-52723190D01*
X133818285Y-52294619D02*
X133865904Y-52247000D01*
X133961142Y-52199380D01*
X134199238Y-52199380D01*
X134294476Y-52247000D01*
X134342095Y-52294619D01*
X134389714Y-52389857D01*
X134389714Y-52485095D01*
X134342095Y-52627952D01*
X133770666Y-53199380D01*
X134389714Y-53199380D01*
%TO.C,D8*%
X139863057Y-41912536D02*
X139409066Y-42803543D01*
X139196922Y-42695450D01*
X139091254Y-42588165D01*
X139049633Y-42460070D01*
X139050442Y-42353594D01*
X139094487Y-42162260D01*
X139159343Y-42034973D01*
X139288246Y-41886876D01*
X139373912Y-41823637D01*
X139502007Y-41782016D01*
X139650912Y-41804443D01*
X139863057Y-41912536D01*
X138585341Y-41902837D02*
X138648580Y-41988503D01*
X138669390Y-42052550D01*
X138668582Y-42159027D01*
X138646963Y-42201455D01*
X138561297Y-42264695D01*
X138497250Y-42285505D01*
X138390773Y-42284697D01*
X138221058Y-42198222D01*
X138157818Y-42112556D01*
X138137008Y-42048509D01*
X138137816Y-41942032D01*
X138159435Y-41899603D01*
X138245101Y-41836364D01*
X138309149Y-41815554D01*
X138415625Y-41816362D01*
X138585341Y-41902837D01*
X138691817Y-41903645D01*
X138755864Y-41882835D01*
X138841530Y-41819595D01*
X138928005Y-41649880D01*
X138928813Y-41543404D01*
X138908003Y-41479356D01*
X138844764Y-41393690D01*
X138675048Y-41307216D01*
X138568572Y-41306407D01*
X138504524Y-41327218D01*
X138418858Y-41390457D01*
X138332384Y-41560172D01*
X138331576Y-41666649D01*
X138352386Y-41730696D01*
X138415625Y-41816362D01*
%TO.C,D7*%
X113313380Y-93956095D02*
X112313380Y-93956095D01*
X112313380Y-93718000D01*
X112361000Y-93575142D01*
X112456238Y-93479904D01*
X112551476Y-93432285D01*
X112741952Y-93384666D01*
X112884809Y-93384666D01*
X113075285Y-93432285D01*
X113170523Y-93479904D01*
X113265761Y-93575142D01*
X113313380Y-93718000D01*
X113313380Y-93956095D01*
X112313380Y-93051333D02*
X112313380Y-92384666D01*
X113313380Y-92813238D01*
%TO.C,Q3*%
X146081761Y-91138619D02*
X145986523Y-91091000D01*
X145891285Y-90995761D01*
X145748428Y-90852904D01*
X145653190Y-90805285D01*
X145557952Y-90805285D01*
X145605571Y-91043380D02*
X145510333Y-90995761D01*
X145415095Y-90900523D01*
X145367476Y-90710047D01*
X145367476Y-90376714D01*
X145415095Y-90186238D01*
X145510333Y-90091000D01*
X145605571Y-90043380D01*
X145796047Y-90043380D01*
X145891285Y-90091000D01*
X145986523Y-90186238D01*
X146034142Y-90376714D01*
X146034142Y-90710047D01*
X145986523Y-90900523D01*
X145891285Y-90995761D01*
X145796047Y-91043380D01*
X145605571Y-91043380D01*
X146367476Y-90043380D02*
X146986523Y-90043380D01*
X146653190Y-90424333D01*
X146796047Y-90424333D01*
X146891285Y-90471952D01*
X146938904Y-90519571D01*
X146986523Y-90614809D01*
X146986523Y-90852904D01*
X146938904Y-90948142D01*
X146891285Y-90995761D01*
X146796047Y-91043380D01*
X146510333Y-91043380D01*
X146415095Y-90995761D01*
X146367476Y-90948142D01*
%TO.C,U1*%
X144272095Y-76287380D02*
X144272095Y-77096904D01*
X144319714Y-77192142D01*
X144367333Y-77239761D01*
X144462571Y-77287380D01*
X144653047Y-77287380D01*
X144748285Y-77239761D01*
X144795904Y-77192142D01*
X144843523Y-77096904D01*
X144843523Y-76287380D01*
X145843523Y-77287380D02*
X145272095Y-77287380D01*
X145557809Y-77287380D02*
X145557809Y-76287380D01*
X145462571Y-76430238D01*
X145367333Y-76525476D01*
X145272095Y-76573095D01*
X110196380Y-47323238D02*
X111196380Y-46989904D01*
X110196380Y-46656571D01*
X111196380Y-46323238D02*
X110196380Y-46323238D01*
X111196380Y-45847047D02*
X110196380Y-45847047D01*
X111196380Y-45275619D01*
X110196380Y-45275619D01*
X116228761Y-47164476D02*
X116276380Y-47021619D01*
X116276380Y-46783523D01*
X116228761Y-46688285D01*
X116181142Y-46640666D01*
X116085904Y-46593047D01*
X115990666Y-46593047D01*
X115895428Y-46640666D01*
X115847809Y-46688285D01*
X115800190Y-46783523D01*
X115752571Y-46974000D01*
X115704952Y-47069238D01*
X115657333Y-47116857D01*
X115562095Y-47164476D01*
X115466857Y-47164476D01*
X115371619Y-47116857D01*
X115324000Y-47069238D01*
X115276380Y-46974000D01*
X115276380Y-46735904D01*
X115324000Y-46593047D01*
X116181142Y-45593047D02*
X116228761Y-45640666D01*
X116276380Y-45783523D01*
X116276380Y-45878761D01*
X116228761Y-46021619D01*
X116133523Y-46116857D01*
X116038285Y-46164476D01*
X115847809Y-46212095D01*
X115704952Y-46212095D01*
X115514476Y-46164476D01*
X115419238Y-46116857D01*
X115324000Y-46021619D01*
X115276380Y-45878761D01*
X115276380Y-45783523D01*
X115324000Y-45640666D01*
X115371619Y-45593047D01*
X116276380Y-44688285D02*
X116276380Y-45164476D01*
X115276380Y-45164476D01*
X121102380Y-47259761D02*
X120102380Y-47259761D01*
X121102380Y-46783571D02*
X120102380Y-46783571D01*
X121102380Y-46212142D01*
X120102380Y-46212142D01*
X120102380Y-45878809D02*
X120102380Y-45307380D01*
X121102380Y-45593095D02*
X120102380Y-45593095D01*
X112911000Y-46989904D02*
X112863380Y-47085142D01*
X112863380Y-47228000D01*
X112911000Y-47370857D01*
X113006238Y-47466095D01*
X113101476Y-47513714D01*
X113291952Y-47561333D01*
X113434809Y-47561333D01*
X113625285Y-47513714D01*
X113720523Y-47466095D01*
X113815761Y-47370857D01*
X113863380Y-47228000D01*
X113863380Y-47132761D01*
X113815761Y-46989904D01*
X113768142Y-46942285D01*
X113434809Y-46942285D01*
X113434809Y-47132761D01*
X113863380Y-46513714D02*
X112863380Y-46513714D01*
X113863380Y-45942285D01*
X112863380Y-45942285D01*
X113863380Y-45466095D02*
X112863380Y-45466095D01*
X112863380Y-45228000D01*
X112911000Y-45085142D01*
X113006238Y-44989904D01*
X113101476Y-44942285D01*
X113291952Y-44894666D01*
X113434809Y-44894666D01*
X113625285Y-44942285D01*
X113720523Y-44989904D01*
X113815761Y-45085142D01*
X113863380Y-45228000D01*
X113863380Y-45466095D01*
X118641761Y-47188285D02*
X118689380Y-47045428D01*
X118689380Y-46807333D01*
X118641761Y-46712095D01*
X118594142Y-46664476D01*
X118498904Y-46616857D01*
X118403666Y-46616857D01*
X118308428Y-46664476D01*
X118260809Y-46712095D01*
X118213190Y-46807333D01*
X118165571Y-46997809D01*
X118117952Y-47093047D01*
X118070333Y-47140666D01*
X117975095Y-47188285D01*
X117879857Y-47188285D01*
X117784619Y-47140666D01*
X117737000Y-47093047D01*
X117689380Y-46997809D01*
X117689380Y-46759714D01*
X117737000Y-46616857D01*
X118689380Y-46188285D02*
X117689380Y-46188285D01*
X117689380Y-45950190D01*
X117737000Y-45807333D01*
X117832238Y-45712095D01*
X117927476Y-45664476D01*
X118117952Y-45616857D01*
X118260809Y-45616857D01*
X118451285Y-45664476D01*
X118546523Y-45712095D01*
X118641761Y-45807333D01*
X118689380Y-45950190D01*
X118689380Y-46188285D01*
X118403666Y-45235904D02*
X118403666Y-44759714D01*
X118689380Y-45331142D02*
X117689380Y-44997809D01*
X118689380Y-44664476D01*
%TO.C,BZ1*%
X94496047Y-81955571D02*
X94638904Y-82003190D01*
X94686523Y-82050809D01*
X94734142Y-82146047D01*
X94734142Y-82288904D01*
X94686523Y-82384142D01*
X94638904Y-82431761D01*
X94543666Y-82479380D01*
X94162714Y-82479380D01*
X94162714Y-81479380D01*
X94496047Y-81479380D01*
X94591285Y-81527000D01*
X94638904Y-81574619D01*
X94686523Y-81669857D01*
X94686523Y-81765095D01*
X94638904Y-81860333D01*
X94591285Y-81907952D01*
X94496047Y-81955571D01*
X94162714Y-81955571D01*
X95067476Y-81479380D02*
X95734142Y-81479380D01*
X95067476Y-82479380D01*
X95734142Y-82479380D01*
X96638904Y-82479380D02*
X96067476Y-82479380D01*
X96353190Y-82479380D02*
X96353190Y-81479380D01*
X96257952Y-81622238D01*
X96162714Y-81717476D01*
X96067476Y-81765095D01*
%TO.C,Q1*%
X130968761Y-91265619D02*
X130873523Y-91218000D01*
X130778285Y-91122761D01*
X130635428Y-90979904D01*
X130540190Y-90932285D01*
X130444952Y-90932285D01*
X130492571Y-91170380D02*
X130397333Y-91122761D01*
X130302095Y-91027523D01*
X130254476Y-90837047D01*
X130254476Y-90503714D01*
X130302095Y-90313238D01*
X130397333Y-90218000D01*
X130492571Y-90170380D01*
X130683047Y-90170380D01*
X130778285Y-90218000D01*
X130873523Y-90313238D01*
X130921142Y-90503714D01*
X130921142Y-90837047D01*
X130873523Y-91027523D01*
X130778285Y-91122761D01*
X130683047Y-91170380D01*
X130492571Y-91170380D01*
X131873523Y-91170380D02*
X131302095Y-91170380D01*
X131587809Y-91170380D02*
X131587809Y-90170380D01*
X131492571Y-90313238D01*
X131397333Y-90408476D01*
X131302095Y-90456095D01*
D11*
%TO.C,SW1*%
X148293666Y-77222047D02*
X148475095Y-77282523D01*
X148777476Y-77282523D01*
X148898428Y-77222047D01*
X148958904Y-77161571D01*
X149019380Y-77040619D01*
X149019380Y-76919666D01*
X148958904Y-76798714D01*
X148898428Y-76738238D01*
X148777476Y-76677761D01*
X148535571Y-76617285D01*
X148414619Y-76556809D01*
X148354142Y-76496333D01*
X148293666Y-76375380D01*
X148293666Y-76254428D01*
X148354142Y-76133476D01*
X148414619Y-76073000D01*
X148535571Y-76012523D01*
X148837952Y-76012523D01*
X149019380Y-76073000D01*
X149442714Y-76012523D02*
X149745095Y-77282523D01*
X149987000Y-76375380D01*
X150228904Y-77282523D01*
X150531285Y-76012523D01*
X151680333Y-77282523D02*
X150954619Y-77282523D01*
X151317476Y-77282523D02*
X151317476Y-76012523D01*
X151196523Y-76193952D01*
X151075571Y-76314904D01*
X150954619Y-76375380D01*
D12*
%TO.C,DS2*%
X93076000Y-82215000D02*
X87076000Y-82215000D01*
X93076000Y-80215000D02*
X93076000Y-82215000D01*
X113076000Y-56215000D02*
X113076000Y-82215000D01*
X107076000Y-82215000D02*
X107076000Y-80215000D01*
X107076000Y-80215000D02*
X93076000Y-80215000D01*
X87076000Y-82215000D02*
X87076000Y-56215000D01*
X87076000Y-56215000D02*
X113076000Y-56215000D01*
X113076000Y-82215000D02*
X107076000Y-82215000D01*
X87706000Y-60765000D02*
X112446000Y-60765000D01*
X112446000Y-60765000D02*
X112446000Y-77665000D01*
X112446000Y-77665000D02*
X87706000Y-77665000D01*
X87706000Y-77665000D02*
X87706000Y-60765000D01*
X89206000Y-62265000D02*
X110946000Y-62265000D01*
X110946000Y-62265000D02*
X110946000Y-72925000D01*
X110946000Y-72925000D02*
X89206000Y-72925000D01*
X89206000Y-72925000D02*
X89206000Y-62265000D01*
%TO.C,D3*%
X156211396Y-52150483D02*
X151049517Y-46988604D01*
X160100483Y-48261396D02*
X154938604Y-43099517D01*
X154938604Y-43099517D02*
X154125431Y-43912689D01*
%TO.C,D12*%
X139327000Y-90983000D02*
X139327000Y-95043000D01*
X139327000Y-95043000D02*
X141597000Y-95043000D01*
X141597000Y-95043000D02*
X141597000Y-90983000D01*
%TO.C,D9*%
X100834847Y-34326507D02*
X101190217Y-35420222D01*
X107777560Y-32070683D02*
X100834847Y-34326507D01*
X109477153Y-37301493D02*
X102534440Y-39557317D01*
%TO.C,C1*%
X86944252Y-51668000D02*
X85521748Y-51668000D01*
X86944252Y-53488000D02*
X85521748Y-53488000D01*
%TO.C,R1*%
X134331064Y-45318000D02*
X132876936Y-45318000D01*
X134331064Y-47138000D02*
X132876936Y-47138000D01*
%TO.C,R7*%
X146452000Y-85436064D02*
X146452000Y-83981936D01*
X144632000Y-85436064D02*
X144632000Y-83981936D01*
D13*
%TO.C,SW2*%
X147005999Y-59533001D02*
X147005999Y-62133001D01*
X152205999Y-59533001D02*
X152205999Y-62133001D01*
X152205999Y-58433001D02*
X152205999Y-58233001D01*
D14*
X153405999Y-62733001D02*
X153405999Y-62733001D01*
D13*
X152205999Y-58233001D02*
X147005999Y-58233001D01*
X147005999Y-63433001D02*
X147005999Y-63233001D01*
D14*
X153605999Y-62733001D02*
X153605999Y-62733001D01*
D13*
X147005999Y-58233001D02*
X147005999Y-58433001D01*
X152205999Y-63233001D02*
X152205999Y-63433001D01*
X152205999Y-63433001D02*
X147005999Y-63433001D01*
D14*
X153605999Y-62733001D02*
G75*
G03*
X153405999Y-62733001I-100000J0D01*
G01*
X153405999Y-62733001D02*
G75*
G03*
X153605999Y-62733001I100000J0D01*
G01*
D12*
%TO.C,R6*%
X119401000Y-85817064D02*
X119401000Y-84362936D01*
X117581000Y-85817064D02*
X117581000Y-84362936D01*
%TO.C,R11*%
X113771000Y-84362936D02*
X113771000Y-85817064D01*
X115591000Y-84362936D02*
X115591000Y-85817064D01*
%TO.C,R12*%
X139552000Y-83981936D02*
X139552000Y-85436064D01*
X141372000Y-83981936D02*
X141372000Y-85436064D01*
%TO.C,R10*%
X126640000Y-84489936D02*
X126640000Y-85944064D01*
X124820000Y-84489936D02*
X124820000Y-85944064D01*
%TO.C,Q4*%
X106043000Y-86685000D02*
X106043000Y-87615000D01*
X106043000Y-89845000D02*
X104583000Y-89845000D01*
X106043000Y-86685000D02*
X102883000Y-86685000D01*
X106043000Y-89845000D02*
X106043000Y-88915000D01*
%TO.C,D13*%
X127602000Y-37421000D02*
X120302000Y-37421000D01*
X120302000Y-31921000D02*
X120302000Y-33071000D01*
X127602000Y-31921000D02*
X120302000Y-31921000D01*
%TO.C,R13*%
X104796000Y-92490936D02*
X104796000Y-93945064D01*
X102976000Y-92490936D02*
X102976000Y-93945064D01*
%TO.C,Q2*%
X121029000Y-92146000D02*
X117869000Y-92146000D01*
X121029000Y-92146000D02*
X121029000Y-93076000D01*
X121029000Y-95306000D02*
X121029000Y-94376000D01*
X121029000Y-95306000D02*
X119569000Y-95306000D01*
%TO.C,D4*%
X84076679Y-42084619D02*
X84752632Y-43014989D01*
X93215321Y-42243381D02*
X87309497Y-46534213D01*
X89982503Y-37793787D02*
X84076679Y-42084619D01*
%TO.C,D1*%
X77008517Y-48515396D02*
X77821689Y-49328569D01*
X82170396Y-43353517D02*
X77008517Y-48515396D01*
X86059483Y-47242604D02*
X80897604Y-52404483D01*
%TO.C,R3*%
X147916064Y-71395003D02*
X146461936Y-71395003D01*
X147916064Y-69575003D02*
X146461936Y-69575003D01*
%TO.C,D11*%
X117950000Y-37421000D02*
X110650000Y-37421000D01*
X117950000Y-31921000D02*
X110650000Y-31921000D01*
X110650000Y-31921000D02*
X110650000Y-33071000D01*
%TO.C,R9*%
X151541936Y-65638002D02*
X152996064Y-65638002D01*
X151541936Y-67458002D02*
X152996064Y-67458002D01*
%TO.C,D6*%
X92273352Y-37433797D02*
X92795441Y-38458455D01*
X101274648Y-39020203D02*
X94770300Y-42334333D01*
X98777700Y-34119667D02*
X92273352Y-37433797D01*
%TO.C,R5*%
X128503000Y-85817064D02*
X128503000Y-84362936D01*
X130323000Y-85817064D02*
X130323000Y-84362936D01*
%TO.C,D10*%
X129839440Y-32324683D02*
X129484071Y-33418398D01*
X135082560Y-39811317D02*
X128139847Y-37555493D01*
X136782153Y-34580507D02*
X129839440Y-32324683D01*
%TO.C,D5*%
X149926503Y-46788213D02*
X144020679Y-42497381D01*
X147253497Y-38047787D02*
X146577544Y-38978157D01*
X153159321Y-42338619D02*
X147253497Y-38047787D01*
%TO.C,R8*%
X151541937Y-71395003D02*
X152996065Y-71395003D01*
X151541937Y-69575003D02*
X152996065Y-69575003D01*
%TO.C,D2*%
X124468000Y-95551000D02*
X126738000Y-95551000D01*
X126738000Y-95551000D02*
X126738000Y-91491000D01*
X124468000Y-91491000D02*
X124468000Y-95551000D01*
%TO.C,R4*%
X147859066Y-67527003D02*
X146404938Y-67527003D01*
X147859066Y-65707003D02*
X146404938Y-65707003D01*
%TO.C,R2*%
X134331064Y-50017000D02*
X132876936Y-50017000D01*
X134331064Y-51837000D02*
X132876936Y-51837000D01*
%TO.C,D8*%
X138585300Y-34754667D02*
X138063211Y-35779324D01*
X142592700Y-42969333D02*
X136088352Y-39655203D01*
X145089648Y-38068797D02*
X138585300Y-34754667D01*
%TO.C,D7*%
X115816000Y-95678000D02*
X115816000Y-91618000D01*
X113546000Y-91618000D02*
X113546000Y-95678000D01*
X113546000Y-95678000D02*
X115816000Y-95678000D01*
%TO.C,Q3*%
X146937000Y-94671000D02*
X145477000Y-94671000D01*
X146937000Y-91511000D02*
X146937000Y-92441000D01*
X146937000Y-91511000D02*
X143777000Y-91511000D01*
X146937000Y-94671000D02*
X146937000Y-93741000D01*
%TO.C,U1*%
X122841000Y-54356000D02*
X108363000Y-54356000D01*
X108363000Y-40894000D02*
X122841000Y-40894000D01*
%TO.C,BZ1*%
X89877000Y-89027000D02*
X90877000Y-89027000D01*
X90377000Y-88527000D02*
X90377000Y-89527000D01*
X96527000Y-89027000D02*
G75*
G03*
X96527000Y-89027000I-1150000J0D01*
G01*
X101377000Y-89027000D02*
G75*
G03*
X101377000Y-89027000I-6000000J0D01*
G01*
%TO.C,Q1*%
X131824000Y-91638000D02*
X131824000Y-92568000D01*
X131824000Y-91638000D02*
X128664000Y-91638000D01*
X131824000Y-94798000D02*
X131824000Y-93868000D01*
X131824000Y-94798000D02*
X130364000Y-94798000D01*
D13*
%TO.C,SW1*%
X152837000Y-74108000D02*
X152837000Y-74308000D01*
X152837000Y-78008000D02*
X152837000Y-75408000D01*
D14*
X146437000Y-74808000D02*
X146437000Y-74808000D01*
D13*
X152837000Y-79308000D02*
X152837000Y-79108000D01*
X147637000Y-79108000D02*
X147637000Y-79308000D01*
X147637000Y-74108000D02*
X152837000Y-74108000D01*
X147637000Y-79308000D02*
X152837000Y-79308000D01*
X147637000Y-78008000D02*
X147637000Y-75408000D01*
X147637000Y-74308000D02*
X147637000Y-74108000D01*
D14*
X146237000Y-74808000D02*
X146237000Y-74808000D01*
X146237000Y-74808000D02*
G75*
G03*
X146437000Y-74808000I100000J0D01*
G01*
X146437000Y-74808000D02*
G75*
G03*
X146237000Y-74808000I-100000J0D01*
G01*
%TD*%
M02*
