M48
; DRILL file {KiCad (5.99.0-13050-gf79cb382c4)} date Thu Nov 18 10:13:42 2021
; FORMAT={-:-/ absolute / inch / decimal}
; #@! TF.CreationDate,2021-11-18T10:13:42-08:00
; #@! TF.GenerationSoftware,Kicad,Pcbnew,(5.99.0-13050-gf79cb382c4)
; #@! TF.FileFunction,Plated,1,2,PTH
FMAT,2
INCH
; #@! TA.AperFunction,Plated,PTH,ViaDrill
T1C0.0100
; #@! TA.AperFunction,Plated,PTH,ComponentDrill
T2C0.0300
; #@! TA.AperFunction,Plated,PTH,ComponentDrill
T3C0.0315
; #@! TA.AperFunction,Plated,PTH,ComponentDrill
T4C0.0394
%
G90
G05
T1
X3.3335Y-2.07
X3.735Y-3.47
X3.81Y-3.22
X3.875Y-2.365
X3.875Y-3.7
X3.937Y-3.6067
X3.9685Y-3.5465
X4.005Y-3.67
X4.02Y-3.84
X4.05Y-3.785
X4.0615Y-3.4
X4.15Y-2.28
X4.16Y-2.37
X4.18Y-2.275
X4.2041Y-3.475
X4.245Y-2.435
X4.295Y-2.555
X4.35Y-3.785
X4.375Y-3.485
X4.41Y-3.72
X4.55Y-2.32
X4.665Y-2.495
X4.665Y-2.555
X4.665Y-2.61
X4.705Y-2.75
X4.725Y-2.495
X4.75Y-2.39
X4.76Y-3.565
X4.915Y-2.395
X5.255Y-2.17
X5.36Y-3.69
X5.53Y-3.274
X5.6Y-2.615
X5.62Y-3.495
X5.74Y-2.78
X6.0559Y-2.62
X6.14Y-1.87
T2
X3.79Y-2.2722
X3.89Y-2.2722
X3.99Y-2.2722
X4.09Y-2.2722
X4.3463Y-2.09
X4.4463Y-2.09
X4.5463Y-2.09
X4.6463Y-2.09
X4.7463Y-2.09
T3
X3.6369Y-3.505
X3.883Y-3.505
T4
X3.565Y-2.0
X3.565Y-3.9
X3.665Y-2.0
X3.665Y-3.9
X3.765Y-2.0
X3.765Y-3.9
X3.865Y-2.0
X3.865Y-3.9
X3.965Y-2.0
X3.965Y-3.9
X4.065Y-2.0
X4.065Y-3.9
X4.165Y-3.9
X4.265Y-2.0
X4.265Y-3.9
X4.365Y-2.0
X4.4248Y-3.9
X4.465Y-2.0
X4.5248Y-3.9
X4.565Y-2.0
X4.6248Y-3.9
X4.665Y-2.0
X4.7248Y-3.9
X4.765Y-2.0
X4.8248Y-3.9
X4.865Y-2.0
X4.9248Y-3.9
X4.965Y-2.0
X5.0248Y-3.9
X5.1248Y-3.9
X5.2248Y-3.9
X5.3248Y-3.9
T0
M30
