%TF.GenerationSoftware,KiCad,Pcbnew,(5.99.0-13050-gf79cb382c4)*%
%TF.CreationDate,2021-11-18T10:13:38-08:00*%
%TF.ProjectId,S_Alarm,535f416c-6172-46d2-9e6b-696361645f70,rev?*%
%TF.SameCoordinates,Original*%
%TF.FileFunction,Paste,Top*%
%TF.FilePolarity,Positive*%
%FSLAX46Y46*%
G04 Gerber Fmt 4.6, Leading zero omitted, Abs format (unit mm)*
G04 Created by KiCad (PCBNEW (5.99.0-13050-gf79cb382c4)) date 2021-11-18 10:13:38*
%MOMM*%
%LPD*%
G01*
G04 APERTURE LIST*
G04 Aperture macros list*
%AMRoundRect*
0 Rectangle with rounded corners*
0 $1 Rounding radius*
0 $2 $3 $4 $5 $6 $7 $8 $9 X,Y pos of 4 corners*
0 Add a 4 corners polygon primitive as box body*
4,1,4,$2,$3,$4,$5,$6,$7,$8,$9,$2,$3,0*
0 Add four circle primitives for the rounded corners*
1,1,$1+$1,$2,$3*
1,1,$1+$1,$4,$5*
1,1,$1+$1,$6,$7*
1,1,$1+$1,$8,$9*
0 Add four rect primitives between the rounded corners*
20,1,$1+$1,$2,$3,$4,$5,0*
20,1,$1+$1,$4,$5,$6,$7,0*
20,1,$1+$1,$6,$7,$8,$9,0*
20,1,$1+$1,$8,$9,$2,$3,0*%
%AMRotRect*
0 Rectangle, with rotation*
0 The origin of the aperture is its center*
0 $1 length*
0 $2 width*
0 $3 Rotation angle, in degrees counterclockwise*
0 Add horizontal line*
21,1,$1,$2,0,0,$3*%
G04 Aperture macros list end*
%ADD10RotRect,1.500000X1.000000X135.000000*%
%ADD11RoundRect,0.250001X0.624999X-0.462499X0.624999X0.462499X-0.624999X0.462499X-0.624999X-0.462499X0*%
%ADD12RotRect,1.500000X1.000000X198.000000*%
%ADD13RoundRect,0.250000X0.412500X0.650000X-0.412500X0.650000X-0.412500X-0.650000X0.412500X-0.650000X0*%
%ADD14RoundRect,0.250000X0.400000X0.625000X-0.400000X0.625000X-0.400000X-0.625000X0.400000X-0.625000X0*%
%ADD15RoundRect,0.250000X0.625000X-0.400000X0.625000X0.400000X-0.625000X0.400000X-0.625000X-0.400000X0*%
%ADD16R,1.000000X0.700000*%
%ADD17RoundRect,0.250000X-0.625000X0.400000X-0.625000X-0.400000X0.625000X-0.400000X0.625000X0.400000X0*%
%ADD18R,1.900000X0.800000*%
%ADD19R,1.500000X1.000000*%
%ADD20RotRect,1.500000X1.000000X216.000000*%
%ADD21RotRect,1.500000X1.000000X225.000000*%
%ADD22RoundRect,0.250000X-0.400000X-0.625000X0.400000X-0.625000X0.400000X0.625000X-0.400000X0.625000X0*%
%ADD23RotRect,1.500000X1.000000X207.000000*%
%ADD24RotRect,1.500000X1.000000X162.000000*%
%ADD25RotRect,1.500000X1.000000X144.000000*%
%ADD26RotRect,1.500000X1.000000X153.000000*%
G04 APERTURE END LIST*
D10*
%TO.C,D3*%
X154973959Y-44761218D03*
X152711218Y-47023959D03*
X156176041Y-50488782D03*
X158438782Y-48226041D03*
%TD*%
D11*
%TO.C,D12*%
X140462000Y-94070500D03*
X140462000Y-91095500D03*
%TD*%
D12*
%TO.C,D9*%
X102331484Y-35049401D03*
X103320339Y-38092782D03*
X107980516Y-36578599D03*
X106991661Y-33535218D03*
%TD*%
D13*
%TO.C,C1*%
X87795500Y-52578000D03*
X84670500Y-52578000D03*
%TD*%
D14*
%TO.C,R1*%
X135154000Y-46228000D03*
X132054000Y-46228000D03*
%TD*%
D15*
%TO.C,R7*%
X145542000Y-86259000D03*
X145542000Y-83159000D03*
%TD*%
D16*
%TO.C,SW2*%
X152605999Y-62683001D03*
X146605999Y-62683001D03*
X152605999Y-58983001D03*
X146605999Y-58983001D03*
%TD*%
D15*
%TO.C,R6*%
X118491000Y-86640000D03*
X118491000Y-83540000D03*
%TD*%
D17*
%TO.C,R11*%
X114681000Y-83540000D03*
X114681000Y-86640000D03*
%TD*%
%TO.C,R12*%
X140462000Y-83159000D03*
X140462000Y-86259000D03*
%TD*%
%TO.C,R10*%
X125730000Y-83667000D03*
X125730000Y-86767000D03*
%TD*%
D18*
%TO.C,Q4*%
X103783000Y-87315000D03*
X103783000Y-89215000D03*
X106783000Y-88265000D03*
%TD*%
D19*
%TO.C,D13*%
X121502000Y-33071000D03*
X121502000Y-36271000D03*
X126402000Y-36271000D03*
X126402000Y-33071000D03*
%TD*%
D17*
%TO.C,R13*%
X103886000Y-91668000D03*
X103886000Y-94768000D03*
%TD*%
D18*
%TO.C,Q2*%
X118769000Y-92776000D03*
X118769000Y-94676000D03*
X121769000Y-93726000D03*
%TD*%
D20*
%TO.C,D4*%
X85723452Y-42309647D03*
X87604365Y-44898501D03*
X91568548Y-42018353D03*
X89687635Y-39429499D03*
%TD*%
D21*
%TO.C,D1*%
X78670218Y-48480041D03*
X80932959Y-50742782D03*
X84397782Y-47277959D03*
X82135041Y-45015218D03*
%TD*%
D14*
%TO.C,R3*%
X148739000Y-70485003D03*
X145639000Y-70485003D03*
%TD*%
D19*
%TO.C,D11*%
X111850000Y-33071000D03*
X111850000Y-36271000D03*
X116750000Y-36271000D03*
X116750000Y-33071000D03*
%TD*%
D22*
%TO.C,R9*%
X150719000Y-66548002D03*
X153819000Y-66548002D03*
%TD*%
D23*
%TO.C,D6*%
X93864649Y-37913666D03*
X95317419Y-40764887D03*
X99683351Y-38540334D03*
X98230581Y-35689113D03*
%TD*%
D15*
%TO.C,R5*%
X129413000Y-86640000D03*
X129413000Y-83540000D03*
%TD*%
D24*
%TO.C,D10*%
X130625339Y-33789218D03*
X129636484Y-36832599D03*
X134296661Y-38346782D03*
X135285516Y-35303401D03*
%TD*%
D25*
%TO.C,D5*%
X147548365Y-39683499D03*
X145667452Y-42272353D03*
X149631635Y-45152501D03*
X151512548Y-42563647D03*
%TD*%
D22*
%TO.C,R8*%
X150719001Y-70485003D03*
X153819001Y-70485003D03*
%TD*%
D11*
%TO.C,D2*%
X125603000Y-94578500D03*
X125603000Y-91603500D03*
%TD*%
D14*
%TO.C,R4*%
X148682002Y-66617003D03*
X145582002Y-66617003D03*
%TD*%
%TO.C,R2*%
X135154000Y-50927000D03*
X132054000Y-50927000D03*
%TD*%
D26*
%TO.C,D8*%
X139132419Y-36324113D03*
X137679649Y-39175334D03*
X142045581Y-41399887D03*
X143498351Y-38548666D03*
%TD*%
D11*
%TO.C,D7*%
X114681000Y-94705500D03*
X114681000Y-91730500D03*
%TD*%
D18*
%TO.C,Q3*%
X144677000Y-92141000D03*
X144677000Y-94041000D03*
X147677000Y-93091000D03*
%TD*%
%TO.C,Q1*%
X129564000Y-92268000D03*
X129564000Y-94168000D03*
X132564000Y-93218000D03*
%TD*%
D16*
%TO.C,SW1*%
X147237000Y-74858000D03*
X153237000Y-74858000D03*
X147237000Y-78558000D03*
X153237000Y-78558000D03*
%TD*%
M02*
